<svg width="32" height="33" viewBox="0 0 32 33" fill="none" xmlns="http://www.w3.org/2000/svg">
<path d="M26.2974 12.0462C26.1406 12.1722 23.3734 13.7879 23.3734 17.3807C23.3734 21.5363 26.8946 23.0065 27 23.0429C26.9838 23.1325 26.4406 25.0563 25.1435 27.0164C23.9869 28.7414 22.7789 30.4636 20.9413 30.4636C19.1037 30.4636 18.6308 29.3575 16.5094 29.3575C14.4421 29.3575 13.707 30.5 12.0262 30.5C10.3453 30.5 9.17245 28.9038 7.82397 26.9436C6.262 24.6418 5 21.0659 5 17.6719C5 12.2282 8.41579 9.34108 11.7775 9.34108C13.5638 9.34108 15.0528 10.5564 16.1743 10.5564C17.2417 10.5564 18.9064 9.26828 20.9386 9.26828C21.7088 9.26828 24.476 9.34108 26.2974 12.0462ZM19.9738 6.96365C20.8143 5.93035 21.4088 4.4966 21.4088 3.06286C21.4088 2.86404 21.3926 2.66242 21.3575 2.5C19.9901 2.55321 18.3632 3.4437 17.3823 4.62261C16.6121 5.5299 15.8933 6.96365 15.8933 8.41699C15.8933 8.63541 15.9284 8.85384 15.9446 8.92384C16.0311 8.94064 16.1716 8.96025 16.3121 8.96025C17.539 8.96025 19.0821 8.10896 19.9738 6.96365Z" fill="black"/>
</svg>
