<svg width="32" height="33" viewBox="0 0 32 33" fill="none" xmlns="http://www.w3.org/2000/svg">
<path d="M30.0007 16.8151C30.0007 15.8934 29.9173 15.0184 29.7742 14.1667H16.3047V19.4284H24.0169C23.6712 21.1551 22.658 22.6134 21.1561 23.6051V27.1051H25.7572C28.4511 24.6667 30.0007 21.0734 30.0007 16.8151Z" fill="#4285F4"/>
<path d="M16.3034 30.5C20.1655 30.5 23.3958 29.24 25.7559 27.105L21.1548 23.605C19.8675 24.445 18.2344 24.9583 16.3034 24.9583C12.5724 24.9583 9.41365 22.4966 8.28126 19.1716H3.53711V22.7766C5.88534 27.35 10.7129 30.5 16.3034 30.5Z" fill="#34A853"/>
<path d="M8.28182 19.1717C7.98382 18.3317 7.82886 17.4334 7.82886 16.5001C7.82886 15.5667 7.99574 14.6684 8.28182 13.8284V10.2234H3.53767C2.56024 12.1134 2 14.2367 2 16.5001C2 18.7634 2.56024 20.8867 3.53767 22.7767L8.28182 19.1717Z" fill="#FBBC05"/>
<path d="M16.3034 8.04167C18.4132 8.04167 20.2966 8.75334 21.7866 10.1417L25.8632 6.15167C23.3958 3.88833 20.1655 2.5 16.3034 2.5C10.7129 2.5 5.88534 5.65 3.53711 10.2233L8.28126 13.8283C9.41365 10.5033 12.5724 8.04167 16.3034 8.04167Z" fill="#EA4335"/>
</svg>
