<svg width="183" height="35" viewBox="0 0 183 35" fill="none" xmlns="http://www.w3.org/2000/svg">
<path d="M0.00952172 26.5V1.25758H4.5171L13.0635 18.0618L21.5738 1.25758H26.0813V26.5H22.2589V7.85667L14.5419 22.8939H11.585L3.83195 7.89273V26.5H0.00952172ZM39.4322 26.9327C37.6773 26.9327 36.1146 26.5481 34.7443 25.7788C33.3981 24.9855 32.3403 23.8916 31.571 22.4973C30.8017 21.1029 30.4171 19.4802 30.4171 17.6291C30.4171 15.7539 30.7897 14.1072 31.5349 12.6888C32.3042 11.2704 33.362 10.1645 34.7083 9.37121C36.0786 8.57788 37.6652 8.18121 39.4683 8.18121C41.2232 8.18121 42.7498 8.57788 44.048 9.37121C45.3462 10.1405 46.3559 11.1742 47.0771 12.4724C47.7983 13.7706 48.1589 15.201 48.1589 16.7636C48.1589 17.004 48.1469 17.2685 48.1228 17.557C48.1228 17.8214 48.1108 18.1219 48.0868 18.4585H34.1674C34.2876 20.1894 34.8525 21.5116 35.8622 22.4252C36.896 23.3146 38.086 23.7594 39.4322 23.7594C40.514 23.7594 41.4155 23.519 42.1368 23.0382C42.882 22.5333 43.4349 21.8602 43.7955 21.0188H47.618C47.1372 22.7016 46.1755 24.108 44.7331 25.2379C43.3147 26.3678 41.5478 26.9327 39.4322 26.9327ZM39.4322 11.3185C38.1581 11.3185 37.0282 11.7031 36.0425 12.4724C35.0569 13.2177 34.4559 14.3476 34.2395 15.8621H44.3365C44.2643 14.4678 43.7715 13.3619 42.858 12.5445C41.9444 11.7272 40.8025 11.3185 39.4322 11.3185ZM52.125 26.5V8.61394H55.5147L55.8032 11.7512C56.3561 10.6454 57.1614 9.7799 58.2192 9.15485C59.301 8.50576 60.5391 8.18121 61.9335 8.18121C64.0971 8.18121 65.792 8.85434 67.018 10.2006C68.2681 11.5469 68.8932 13.5542 68.8932 16.2227V26.5H65.1068V16.6194C65.1068 13.1576 63.6884 11.4267 60.8517 11.4267C59.4333 11.4267 58.2553 11.9315 57.3177 12.9412C56.4042 13.9509 55.9474 15.3933 55.9474 17.2685V26.5H52.125ZM80.8957 26.5C79.1408 26.5 77.7464 26.0793 76.7127 25.2379C75.6789 24.3724 75.1621 22.8459 75.1621 20.6582V11.8233H72.0969V8.61394H75.1621L75.6309 4.0703H78.9845V8.61394H84.033V11.8233H78.9845V20.6582C78.9845 21.6438 79.1888 22.329 79.5975 22.7136C80.0303 23.0742 80.7635 23.2545 81.7972 23.2545H83.8527V26.5H80.8957ZM94.0325 26.9327C92.5179 26.9327 91.2678 26.6803 90.2822 26.1755C89.2965 25.6706 88.5633 25.0095 88.0825 24.1921C87.6017 23.3507 87.3613 22.4372 87.3613 21.4515C87.3613 19.7206 88.0344 18.3503 89.3807 17.3406C90.7269 16.3309 92.6502 15.8261 95.1504 15.8261H99.8382V15.5015C99.8382 14.1072 99.4536 13.0614 98.6843 12.3642C97.939 11.6671 96.9654 11.3185 95.7634 11.3185C94.7056 11.3185 93.7801 11.5829 92.9867 12.1118C92.2174 12.6167 91.7486 13.3739 91.5804 14.3836H87.7579C87.8781 13.0855 88.3109 11.9796 89.0561 11.0661C89.8254 10.1285 90.787 9.41929 91.941 8.93849C93.1189 8.43364 94.4051 8.18121 95.7994 8.18121C98.2996 8.18121 100.235 8.84232 101.605 10.1645C102.976 11.4627 103.661 13.2417 103.661 15.5015V26.5H100.343L100.019 23.4348C99.5137 24.4205 98.7805 25.2499 97.8188 25.923C96.8572 26.5962 95.5951 26.9327 94.0325 26.9327ZM94.7898 23.8315C95.8235 23.8315 96.6889 23.5911 97.3861 23.1103C98.1073 22.6055 98.6603 21.9443 99.0449 21.127C99.4536 20.3096 99.706 19.4081 99.8022 18.4224H95.547C94.0325 18.4224 92.9507 18.6869 92.3016 19.2158C91.6765 19.7446 91.364 20.4058 91.364 21.1991C91.364 22.0165 91.6645 22.6656 92.2655 23.1464C92.8906 23.6031 93.732 23.8315 94.7898 23.8315ZM108.118 26.5V0.536364H111.94V26.5H108.118ZM116.781 26.5V0.536364H120.603V26.5H116.781ZM127.535 34.4333L131.826 25.0215H130.78L123.713 8.61394H127.86L133.341 21.8482L139.074 8.61394H143.113L131.574 34.4333H127.535ZM145.895 17.6291V14.4197H160.572V17.6291H145.895ZM173.357 26.9327C171.602 26.9327 170.039 26.5481 168.669 25.7788C167.322 24.9855 166.265 23.8916 165.495 22.4973C164.726 21.1029 164.341 19.4802 164.341 17.6291C164.341 15.7539 164.714 14.1072 165.459 12.6888C166.229 11.2704 167.286 10.1645 168.633 9.37121C170.003 8.57788 171.59 8.18121 173.393 8.18121C175.148 8.18121 176.674 8.57788 177.972 9.37121C179.27 10.1405 180.28 11.1742 181.001 12.4724C181.723 13.7706 182.083 15.201 182.083 16.7636C182.083 17.004 182.071 17.2685 182.047 17.557C182.047 17.8214 182.035 18.1219 182.011 18.4585H168.092C168.212 20.1894 168.777 21.5116 169.787 22.4252C170.82 23.3146 172.01 23.7594 173.357 23.7594C174.438 23.7594 175.34 23.519 176.061 23.0382C176.806 22.5333 177.359 21.8602 177.72 21.0188H181.542C181.061 22.7016 180.1 24.108 178.657 25.2379C177.239 26.3678 175.472 26.9327 173.357 26.9327ZM173.357 11.3185C172.082 11.3185 170.952 11.7031 169.967 12.4724C168.981 13.2177 168.38 14.3476 168.164 15.8621H178.261C178.189 14.4678 177.696 13.3619 176.782 12.5445C175.869 11.7272 174.727 11.3185 173.357 11.3185Z" fill="white"/>
</svg>
