<svg width="32" height="33" viewBox="0 0 32 33" fill="none" xmlns="http://www.w3.org/2000/svg">
<path d="M5.02434 19.3706C5.02434 20.4053 5.25901 21.1998 5.56573 21.6804C5.96787 22.3099 6.56767 22.5766 7.17916 22.5766C7.96787 22.5766 8.68939 22.3872 10.0798 20.526C11.1938 19.0341 12.5063 16.9401 13.3895 15.6273L14.8851 13.4032C15.924 11.8586 17.1266 10.1416 18.5054 8.9777C19.631 8.02775 20.8452 7.5 22.0672 7.5C24.1188 7.5 26.073 8.65068 27.5686 10.8088C29.2055 13.1724 30 16.1494 30 19.2217C30 21.0481 29.628 22.3901 28.9951 23.4503C28.3836 24.4756 27.1918 25.5 25.1869 25.5V22.5766C26.9036 22.5766 27.332 21.0499 27.332 19.3027C27.332 16.8129 26.7322 14.0497 25.4109 12.0754C24.4732 10.675 23.258 9.81926 21.9211 9.81926C20.4752 9.81926 19.3116 10.8748 18.0039 12.7568C17.3087 13.7566 16.5949 14.9752 15.7936 16.3502L14.9114 17.8627C13.1392 20.9039 12.6904 21.5965 11.8043 22.7397C10.2512 24.7414 8.92502 25.5 7.17916 25.5C5.10808 25.5 3.79844 24.632 2.98734 23.324C2.32522 22.2581 2 20.8596 2 19.266L5.02434 19.3706Z" fill="#0081FB"/>
<path d="M4.38477 11.0152C5.77133 8.9466 7.7723 7.5 10.0673 7.5C11.3964 7.5 12.7178 7.88073 14.0975 8.9711C15.6068 10.1632 17.2153 12.1263 19.2222 15.3616L19.9417 16.5226C21.6788 19.3235 22.6671 20.7644 23.2455 21.4439C23.9894 22.3165 24.5104 22.5766 25.1871 22.5766C26.9037 22.5766 27.3322 21.0499 27.3322 19.3027L30.0001 19.2217C30.0001 21.0481 29.6282 22.3901 28.9953 23.4503C28.3838 24.4756 27.192 25.5 25.1871 25.5C23.9407 25.5 22.8366 25.238 21.6155 24.1231C20.6769 23.2674 19.5795 21.7473 18.7353 20.3808L16.2241 16.3209C14.9641 14.2835 13.8083 12.7643 13.1394 12.0763C12.4198 11.3365 11.4948 10.4431 10.0186 10.4431C8.82391 10.4431 7.8093 11.2546 6.96023 12.4957L4.38477 11.0152Z" fill="url(#paint0_linear_316_12547)"/>
<path d="M10.0185 10.4431C8.82376 10.4431 7.80915 11.2546 6.96008 12.4957C5.75949 14.2495 5.02434 16.8619 5.02434 19.3706C5.02434 20.4053 5.25901 21.1998 5.56572 21.6804L2.98734 23.324C2.32522 22.2581 2 20.8596 2 19.266C2 16.3681 2.82181 13.3476 4.38462 11.0152C5.77118 8.9466 7.77215 7.5 10.0672 7.5L10.0185 10.4431Z" fill="url(#paint1_linear_316_12547)"/>
<defs>
<linearGradient id="paint0_linear_316_12547" x1="7.93978" y1="18.5262" x2="27.2159" y2="19.5321" gradientUnits="userSpaceOnUse">
<stop stop-color="#0064E1"/>
<stop offset="0.4" stop-color="#0064E1"/>
<stop offset="0.83" stop-color="#0073EE"/>
<stop offset="1" stop-color="#0082FB"/>
</linearGradient>
<linearGradient id="paint1_linear_316_12547" x1="6.38169" y1="20.5995" x2="6.38169" y2="13.7199" gradientUnits="userSpaceOnUse">
<stop stop-color="#0082FB"/>
<stop offset="1" stop-color="#0064E0"/>
</linearGradient>
</defs>
</svg>
