<svg width="53" height="54" viewBox="0 0 53 54" fill="none" xmlns="http://www.w3.org/2000/svg">
<rect x="0.369141" y="0.947266" width="52.1053" height="52.1053" rx="26.0526" fill="white" fill-opacity="0.1"/>
<path d="M15.7637 26.9997C15.7637 21.1135 20.5354 16.3418 26.4216 16.3418C32.3078 16.3418 37.0795 21.1135 37.0795 26.9997C37.0795 32.8859 32.3078 37.6576 26.4216 37.6576H15.7637V26.9997Z" stroke="#1A50A2" stroke-width="1.77632" stroke-linejoin="round"/>
<path d="M21.6842 28.1829C22.3382 28.1829 22.8684 27.6527 22.8684 26.9987C22.8684 26.3446 22.3382 25.8145 21.6842 25.8145C21.0302 25.8145 20.5 26.3446 20.5 26.9987C20.5 27.6527 21.0302 28.1829 21.6842 28.1829Z" fill="#1A50A2"/>
<path d="M26.4205 28.1829C27.0746 28.1829 27.6047 27.6527 27.6047 26.9987C27.6047 26.3446 27.0746 25.8145 26.4205 25.8145C25.7665 25.8145 25.2363 26.3446 25.2363 26.9987C25.2363 27.6527 25.7665 28.1829 26.4205 28.1829Z" fill="#1A50A2"/>
<path d="M31.1588 28.1829C31.8128 28.1829 32.343 27.6527 32.343 26.9987C32.343 26.3446 31.8128 25.8145 31.1588 25.8145C30.5048 25.8145 29.9746 26.3446 29.9746 26.9987C29.9746 27.6527 30.5048 28.1829 31.1588 28.1829Z" fill="#1A50A2"/>
</svg>
