<svg width="41" height="54" viewBox="0 0 41 54" fill="none" xmlns="http://www.w3.org/2000/svg">
<rect y="0.947266" width="40.2632" height="52.1053" rx="20.1316" fill="white" fill-opacity="0.1"/>
<path d="M9.92383 27.0006L12.7778 29.8663L18.4975 24.1348" stroke="#1A50A2" stroke-width="1.77632" stroke-linecap="round" stroke-linejoin="round"/>
<path d="M12.7309 15.69C13.548 14.9913 14.8862 14.9913 15.7151 15.69L17.5862 17.3006C17.9414 17.6084 18.6046 17.8571 19.0783 17.8571H21.0914C22.3467 17.8571 23.377 18.8874 23.377 20.1427V22.1558C23.377 22.6177 23.6257 23.2927 23.9336 23.6479L25.5441 25.519C26.2428 26.3361 26.2428 27.6742 25.5441 28.5032L23.9336 30.3742C23.6257 30.7295 23.377 31.3927 23.377 31.8663V33.8795C23.377 35.1348 22.3467 36.165 21.0914 36.165H19.0783C18.6164 36.165 17.9414 36.4137 17.5862 36.7216L15.7151 38.3321C14.898 39.0308 13.5599 39.0308 12.7309 38.3321L10.8599 36.7216C10.5046 36.4137 9.84145 36.165 9.36776 36.165H7.31908C6.06382 36.165 5.03355 35.1348 5.03355 33.8795V31.8545C5.03355 31.3927 4.78487 30.7295 4.48882 30.3742L2.89013 28.4913C2.20329 27.6742 2.20329 26.3479 2.89013 25.5308L4.48882 23.6479C4.78487 23.2927 5.03355 22.6295 5.03355 22.1677V20.1308C5.03355 18.8756 6.06382 17.8453 7.31908 17.8453H9.36776C9.82961 17.8453 10.5046 17.5966 10.8599 17.2887L12.7309 15.69Z" stroke="#1A50A2" stroke-width="1.77632" stroke-linecap="round" stroke-linejoin="round"/>
</svg>
