<svg width="32" height="32" viewBox="0 0 32 32" fill="none" xmlns="http://www.w3.org/2000/svg">
<path d="M23.9366 14.8486C23.733 12.615 23.0545 10.4507 21.9464 8.50063C20.8383 6.55059 19.3263 4.85988 17.5116 3.54174L15.7284 2.25049L14.0575 3.54986C12.3166 4.90336 10.8808 6.6089 9.84387 8.55509C8.80697 10.5013 8.19232 12.6443 8.04007 14.8442C7.3674 14.7175 6.68438 14.6537 5.99988 14.6537H0.999878V18.7505C0.999878 24.8159 5.93444 29.7505 11.9999 29.7505H19.9999C26.0653 29.7505 30.9999 24.8159 30.9999 18.7505V14.6537H25.9999C25.3075 14.6536 24.6167 14.7189 23.9366 14.8486ZM15.2854 5.12861L15.7713 4.75049L16.3388 5.16143C17.9754 6.35026 19.3291 7.88594 20.3032 9.6587C21.2774 11.4315 21.8479 13.3975 21.974 15.4164C19.3294 16.4641 17.19 18.4901 15.9999 21.0737C14.8073 18.4853 12.662 16.4569 10.0109 15.4112C10.0807 13.415 10.5896 11.4588 11.5012 9.68156C12.4128 7.90436 13.7048 6.34985 15.2854 5.12861ZM14.9999 27.7505H11.9999C7.03738 27.7505 2.99988 23.713 2.99988 18.7505V16.6537H5.99988C10.9624 16.6537 14.9999 20.6912 14.9999 25.6537V27.7505ZM28.9999 18.7505C28.9999 23.713 24.9624 27.7505 19.9999 27.7505H16.9999V25.6537C16.9999 20.6912 21.0374 16.6537 25.9999 16.6537H28.9999V18.7505Z" fill="white"/>
</svg>
