<svg width="18" height="20" viewBox="0 0 18 20" fill="none" xmlns="http://www.w3.org/2000/svg">
<path d="M4.00006 10H6.00006V12H4.00006V10ZM18.0001 4V18C18.0001 18.5304 17.7893 19.0391 17.4143 19.4142C17.0392 19.7893 16.5305 20 16.0001 20H2.00006C0.890061 20 6.10352e-05 19.1 6.10352e-05 18V4C6.10352e-05 3.46957 0.210775 2.96086 0.585847 2.58579C0.96092 2.21071 1.46963 2 2.00006 2H3.00006V0H5.00006V2H13.0001V0H15.0001V2H16.0001C16.5305 2 17.0392 2.21071 17.4143 2.58579C17.7893 2.96086 18.0001 3.46957 18.0001 4ZM2.00006 6H16.0001V4H2.00006V6ZM16.0001 18V8H2.00006V18H16.0001ZM12.0001 12V10H14.0001V12H12.0001ZM8.00006 12V10H10.0001V12H8.00006ZM4.00006 14H6.00006V16H4.00006V14ZM12.0001 16V14H14.0001V16H12.0001ZM8.00006 16V14H10.0001V16H8.00006Z" fill="#868585"/>
</svg>
