<svg width="24" height="24" viewBox="0 0 24 24" fill="none" xmlns="http://www.w3.org/2000/svg">
<path d="M11.9998 3.99951C13.0606 3.99951 14.078 4.42094 14.8282 5.17108C15.5783 5.92123 15.9998 6.93865 15.9998 7.99951C15.9998 9.06038 15.5783 10.0778 14.8282 10.8279C14.078 11.5781 13.0606 11.9995 11.9998 11.9995C10.9389 11.9995 9.92147 11.5781 9.17133 10.8279C8.42118 10.0778 7.99976 9.06038 7.99976 7.99951C7.99976 6.93865 8.42118 5.92123 9.17133 5.17108C9.92147 4.42094 10.9389 3.99951 11.9998 3.99951ZM11.9998 13.9995C16.4198 13.9995 19.9998 15.7895 19.9998 17.9995V19.9995H3.99976V17.9995C3.99976 15.7895 7.57976 13.9995 11.9998 13.9995Z" fill="#868585"/>
</svg>
